<?xml version="1.0" encoding="utf-8"?>
<!-- Generator: Adobe Illustrator 30.3.0, SVG Export Plug-In . SVG Version: 9.03 Build 0)  -->
<svg version="1.1" id="Layer_1" xmlns="http://www.w3.org/2000/svg" xmlns:xlink="http://www.w3.org/1999/xlink" x="0px" y="0px"
	 viewBox="0 0 550.1 136.9" style="enable-background:new 0 0 550.1 136.9;" xml:space="preserve">
<style type="text/css">
	.Drop_x0020_Shadow{fill:none;}
	.Outer_x0020_Glow_x0020_5_x0020_pt{fill:none;}
	.Blue_x0020_Neon{fill:none;stroke:#8AACDA;stroke-width:7;stroke-linecap:round;stroke-linejoin:round;}
	.Chrome_x0020_Highlight{fill:url(#SVGID_1_);stroke:#FFFFFF;stroke-width:0.3629;stroke-miterlimit:1;}
	.Jive_GS{fill:#FFDD00;}
	.Alyssa_GS{fill:#A6D0E4;}
	.st0{fill:#FFFFFF;}
</style>
<linearGradient id="SVGID_1_" gradientUnits="userSpaceOnUse" x1="935.5063" y1="-459.8821" x2="935.5063" y2="-460.8821">
	<stop  offset="0" style="stop-color:#656565"/>
	<stop  offset="0.618" style="stop-color:#1B1B1B"/>
	<stop  offset="0.6292" style="stop-color:#545454"/>
	<stop  offset="0.9831" style="stop-color:#3E3E3E"/>
</linearGradient>
<g>
	<g>
		<g>
			<path d="M167.4,11.2H199c18.2,0,34.6,6.4,34.6,27.2c0,23.6-17.6,27.9-37.5,27.9h-11.9v38.9h-16.7V11.2z M194.2,51.9
				c9.6,0,21.9-0.5,21.9-13.3c0-11.5-11-13.1-20-13.1h-11.9v26.4H194.2z"/>
			<path d="M255.9,50.3h0.3c2.5-5.3,8.9-10.5,18.7-10.5c17.1,0,23.2,12.1,23.2,25.1v40.2h-15.9V72.9c0-7-0.5-18.7-11.7-18.7
				c-10.5,0-14.6,7.7-14.6,16.2v34.8H240V11.2h15.9V50.3z"/>
			<path d="M307.3,41.4h15.9v10.1h0.3c3.4-7.3,10.5-11.7,18.8-11.7c2,0,3.8,0.4,5.7,0.9v15.4c-2.7-0.7-5.2-1.2-7.7-1.2
				c-15,0-17.1,12.6-17.1,16v34.1h-15.9V41.4z"/>
			<path d="M382.7,39.8c19.2,0,34.6,13.4,34.6,33.4c0,20-15.4,33.4-34.6,33.4c-19.2,0-34.6-13.4-34.6-33.4
				C348.1,53.2,363.4,39.8,382.7,39.8z M382.7,92.4c11.7,0,18.7-9.2,18.7-19.1c0-9.9-7-19.1-18.7-19.1c-11.7,0-18.7,9.2-18.7,19.1
				C364,83.2,371,92.4,382.7,92.4z"/>
			<path d="M422.9,41.4h15.1v10.2h0.3c2.9-6.4,8.9-11.8,19.5-11.8c17.1,0,23.2,12.1,23.2,25.1v40.2h-15.9V72.9
				c0-7-0.5-18.7-11.7-18.7c-10.5,0-14.6,7.7-14.6,16.2v34.8h-15.9V41.4z"/>
			<path d="M482,41.4h17.5l17.8,44.2h0.3l15.9-44.2h16.6L520,118.8c-4.6,11.9-10.2,18.2-24.3,18.2c-4.1,0-8.2-0.5-12.2-1.6l2-14.3
				c2.5,0.9,5.3,1.6,8.1,1.6c7.8,0,9.9-2.8,12.6-9.4l3.1-7.6L482,41.4z"/>
		</g>
	</g>
	<g>
		<path d="M114.9,50.8l24.6-24.6L120.3,7C111-2.3,95.9-2.3,86.6,7l0,0c-9.3,9.3-24.4,9.3-33.7,0l0,0c-9.3-9.3-24.4-9.3-33.7,0
			L0,26.2l24.6,24.6c4.1,4.1,4.1,10.7,0,14.7L0,90.1l19.2,19.2c9.3,9.3,24.4,9.3,33.7,0v0c9.3-9.3,24.4-9.3,33.7,0v0
			c9.3,9.3,24.4,9.3,33.7,0l19.2-19.2l-24.6-24.6C110.8,61.4,110.8,54.8,114.9,50.8z M92,65.5L69.8,87.8L47.5,65.5
			c-4.1-4.1-4.1-10.7,0-14.7l22.3-22.3L92,50.8C96.1,54.8,96.1,61.4,92,65.5z"/>
	</g>
</g>
</svg>
